# xmcd
#
# Track frame offsets: 
#        150
#        34395
#        63898
#        97848
#        133232
#        159765
#        187870
#        223317
#        268469
#
# Disc length: 3871 seconds
#
# Revision: 0
# Processed by: cddbd v1.5.2PL0 Copyright (c) Steve Scherf et al.
# Submitted via: ExactAudioCopyFreeDBPlugin 1.0
#
DISCID=800f1d09
DTITLE=Insane Clown Posse - Phantom X-tra Spooky Edition
DYEAR=2015
DGENRE=The Wicked Shit
TTITLE0=Phantom
TTITLE1=No More Jail
TTITLE2=Benapryl
TTITLE3=Complicated World
TTITLE4=Detroit Car Jackin'
TTITLE5=Super Duper
TTITLE6=Murder Gone Wrong
TTITLE7=Williamsburg Psych Ward
TTITLE8=Get Clowned (Remix)
EXTD=
EXTT0=
EXTT1=
EXTT2=
EXTT3=
EXTT4=
EXTT5=
EXTT6=
EXTT7=
EXTT8=
PLAYORDER=
